<svg xmlns="http://www.w3.org/2000/svg" xmlns:xlink="http://www.w3.org/1999/xlink" viewBox="0 0 61 37.6" width="61" height="37.6"><g fill="#495965"><use xlink:href="#B"/><use xlink:href="#B"/></g><g fill="#7a003c"><use xlink:href="#C"/><use xlink:href="#C"/></g><g fill="#495965"><path d="M66.8 0h.4v36.6h-.4zM11.3 16c-.1-.1-.3-.1-.4-.1-.2 0-.4 0-.5-.2s-.1-.8-.1-1.1v-.1-6.6-.2c0-.3 0-.8.1-.9s.3-.1.4-.1h.1c.4 0 .4-.3.4-.4s0-.2-.1-.2c-.1-.1-.2-.1-.3-.1h-.1-1.6c-.2 0-.4 0-.5.3l-2.9 7.4-2.5-7.1v-.1c-.1-.2-.2-.5-.5-.5H1.1 1c-.1 0-.2 0-.3.1s-.1.1-.1.2 0 .4.4.4c.3 0 .5 0 .6.1s.1.3.1.7l-.4 7.2c0 .9-.1 1.2-.8 1.2-.4 0-.5.2-.5.3s.1.3.3.3h.6.6.6.7c.1 0 .4 0 .4-.3 0-.1 0-.2-.1-.2-.1-.1-.3-.1-.4-.1h0c-.3 0-.5-.1-.6-.2-.3-.3-.3-.8-.2-1.5l.4-6.4 2.8 8h0c0 .1.1.4.3.4s.3-.2.3-.3l3.1-8.2v7.1.1c0 .3 0 .8-.2 1-.1.1-.4.2-.6.2-.1 0-.3 0-.4.1s-.1.1-.1.2.1.3.4.3h.9.9.7.7c.3 0 .4-.2.4-.3-.1-.3-.2-.4-.2-.4zm5.5-5c-.2 0-.4-.3-.6-.7-.3-.5-.7-1.2-1.4-1.2-.5 0-1.1.3-1.5.7-.7.6-1.1 1.6-1.1 2.7 0 1.6 1.1 3.4 2.7 3.4a2.19 2.19 0 0 0 1.7-.7c.1-.1.2-.2.3-.2s.2.1.2.2-.1.3-.5.7c-.6.6-1.4.9-2.3.9-1.9 0-3.5-1.8-3.5-3.9 0-2.3 1.9-4.2 4.1-4.2.6 0 1.4.2 1.9.6.2.2.2.4.2.7v.1.1c0 .3 0 .6-.1.8.1 0 0 0-.1 0zm11.7 5c-.1-.1-.3-.1-.4-.1-.2 0-.4 0-.5-.2s-.1-.8-.1-1.1v-.1-6.6-.2c0-.3 0-.8.1-.9s.3-.1.4-.1h.1c.4 0 .4-.3.4-.4s0-.2-.1-.2c-.1-.1-.2-.1-.3-.1H28h-1.6c-.2 0-.4 0-.5.3L23 13.7l-2.5-7.1v-.1c-.1-.2-.2-.5-.5-.5h-1.7-.1c-.1 0-.3 0-.3.1-.1.1-.1.1-.1.2s0 .4.4.4c.3 0 .5 0 .6.1.2.1.2.3.2.7l-.4 7.2c0 .9-.1 1.2-.8 1.2-.4 0-.5.2-.5.3s.1.3.3.3h.6.6.6.7c.1 0 .4 0 .4-.3 0-.1 0-.2-.1-.2-.1-.1-.3-.1-.4-.1h0c-.3 0-.5-.1-.6-.2-.3-.3-.3-.8-.2-1.5l.4-6.4 2.8 8h0c0 .1.1.4.3.4s.3-.2.3-.3l3.1-8.2v7.1.1c0 .3 0 .8-.2 1-.1.1-.4.2-.6.2-.1 0-.3 0-.4.1s-.1.1-.1.2.1.3.4.3h.9.9.7.7c.3 0 .4-.2.4-.3-.2-.3-.2-.4-.3-.4z"/><path d="M32 12.2c.5-.3.5-.3.5-.9v-.7c0-.9-.1-1.4-.9-1.4s-1.3.4-1.7 1.4v.1c-.1.2-.2.5-.4.6s-.5.2-.7.2-.3-.1-.3-.3c0-.5.4-1 .7-1.3.7-.8 1.8-1.2 2.8-1.2.7 0 1.2.2 1.5.5s.3.7.3 1.1v.2 4h0c0 .3 0 .9.2 1.1.1.1.1.1.2.1.2 0 .3-.1.4-.3.1-.1.2-.2.3-.2s.2.1.2.2c0 .2-.2.5-.4.6h0c-.3.2-.7.5-1.2.5-.6 0-.8-.5-.9-.9 0-.1-.1-.2-.1-.3l-.2.2c-.4.4-1.2 1.1-2.3 1.1-.7 0-1.5-.5-1.5-1.4 0-1.2 1.3-1.9 2.2-2.4l.1-.1c0 .1 1.2-.5 1.2-.5zm-1 1.1c-.6.3-1.1.8-1.1 1.5s.5.9 1 .9 1-.2 1.4-.6c.3-.4.4-.7.4-1.2v-1-.3h-.1-.1 0l-1.5.7zm4.4 1h0c0-.2 0-.5.3-.5s.3.3.4.7c.1.7.3 1.6 1.6 1.6.9 0 1.8-.5 1.8-1.6 0-.9-.7-1.3-1.4-1.5H38c-1-.3-2.3-.8-2.3-2.2 0-.6.3-1.2.8-1.7.5-.4 1.1-.6 1.9-.6.4 0 1.2.1 1.6.3.3.1.2.4.2.7v.2.1c0 .3 0 .6-.1.8 0 0-.1.1-.2.1-.2 0-.3-.2-.4-.5-.2-.5-.4-1.1-1.5-1.1-.5 0-1.3.4-1.3 1.2s.7 1.1 1.6 1.4c1 .4 2.2.8 2.2 2.4 0 1.8-1.8 2.6-3 2.6-.5 0-1.4-.2-2-.5-.3-.1-.3-.4-.3-.6v-.1c.1 0 .2-1.2.2-1.2zm9.4 1.2c0-.1-.1-.2-.2-.2s-.1.1-.3.2c-.2.2-.5.4-.8.4-.2 0-.3-.1-.5-.2-.3-.3-.3-1.1-.3-1.7h0V9.7c0-.2 0-.2.1-.3h.2.2.9.2c.1 0 .2 0 .3-.1s.1-.2.1-.3 0-.3-.2-.3H43c-.1 0-.2 0-.2-.2V7.3c-.1-.3-.2-.3-.3-.3s-.2.2-.2.2c-.3.8-.8 1.2-1.4 1.7-.1.1-.2.1-.2.3 0 .1 0 .1.1.2s.3.1.5.1h.1.2v.2V14v.2c0 .7 0 1.4.4 1.9.3.4.7.6 1.2.6s1.1-.2 1.5-.7c-.1 0 .1-.3.1-.5zm6.4-.8c-.1 0-.2.1-.3.2-.3.3-.9.9-1.9.9-1.9 0-2.9-1.7-2.9-3.4 0-.2 0-.3.1-.4s.2-.1.4-.1h.1 4.6c.1 0 .3 0 .3-.4 0-.6-.2-1.3-.6-1.8-.5-.7-1.3-1.1-2.3-1.1-1.1 0-2 .4-2.8 1.2-.8.7-1.1 1.6-1.1 2.9 0 2.2 1.6 4 3.6 4 1 0 1.8-.3 2.5-1h0c.4-.4.6-.7.6-.8-.1-.1-.2-.2-.3-.2zm-4.6-4.5c.4-.7 1.1-1.1 1.9-1.1.4 0 .9.1 1.2.5.2.3.4.6.4.9s-.2.5-.5.6c-.4.1-1.3.1-1.7.1h-1.2-.1-.3v-.1c-.1-.2.2-.7.3-.9zm9.3-1.5c-.8 0-1.4.7-1.7 1.1 0 .1-.1.1-.1.2v-.2V9h0c0-.1 0-.2-.1-.3 0 0-.1-.1-.2-.1s-.2.1-.3.2v.1c-.2.3-.9.7-1.2.8h-.1c-.1 0-.4.1-.4.4 0 .1.1.2.3.2h.2c.2 0 .3 0 .4.1s.1.8.1 1v.1 3.2.3c0 .6 0 .9-.6 1h-.1c-.2 0-.4 0-.4.3 0 .2.1.3.3.3h.7.7.7.7c.2 0 .3-.1.3-.3 0-.3-.3-.3-.4-.3h-.1c-.6-.1-.6-.4-.6-1v-.3V12v-.1c0-.6 0-1 .3-1.6.2-.2.4-.6.7-.6.1 0 .2.1.4.3.1.2.3.4.6.4.4 0 .7-.3.7-.8.1-.5-.3-.9-.8-.9zM5 19.9h0c0-.3 0-.8-.1-.9-.1-.2-.2-.2-.4-.2h0c-.1 0-.2 0-.3-.1 0 0-.1-.1-.1-.2s0-.1.1-.2.1-.1.2-.1h.4.4.3.4c.3 0 .3.2.3.2 0 .2-.1.2-.4.2s-.3.2-.4.6v.2 3.1c0 .6 0 1.1-.5 1.6-.4.4-1 .6-1.7.6-.4 0-1.2-.1-1.7-.5-.6-.4-.6-1-.6-1.7v-.1-3.1-.1c0-.3 0-.4-.1-.5s-.2-.1-.4-.1-.3-.1-.3-.2 0-.1.1-.2c0 0 .1-.1.2-.1h.5.5.5.5c.2 0 .3.1.3.2 0 .2-.1.2-.3.2s-.3 0-.4.1-.1.2-.1.5v.1V22v.1c0 .4 0 1.1.2 1.4.3.5 1.1.6 1.3.6.3 0 1-.1 1.4-.5.2-.1.2-.5.2-1h0v-2.7zm5.8 4.4c-.3 0-.4-.2-.3-.5v-.2V22v-.1c0-.5 0-.9-.3-1.3s-.7-.6-1.1-.6c-.6 0-1 .4-1.3.7l-.1.1v-.5h0c0-.1 0-.1-.1-.2h-.1c-.1 0-.2.1-.2.1-.1.2-.5.4-.7.5-.1 0-.2.1-.2.3 0 .1.1.2.2.2h.1.2s.1.2.1.5h0v1.9.2c0 .4 0 .5-.3.5-.1 0-.3 0-.3.2 0 .1.1.2.2.2H7h.4.4.4c.1 0 .2-.1.2-.2 0-.2-.2-.2-.3-.2-.3 0-.3-.2-.3-.5v-.2-1.7c0-.4 0-.6.3-.8.2-.3.5-.4.8-.4s.6.1.7.4c.1.2.1.6.1.9v1.6.2c0 .4 0 .5-.3.5-.1 0-.3 0-.3.2 0 .1.1.2.2.2h.4.4.4.4c.1 0 .2-.1.2-.2 0-.2-.2-.2-.3-.2zm1.3-5.5c0-.3.2-.6.5-.6s.5.3.5.6c0 .4-.2.6-.5.6s-.5-.3-.5-.6zm.9 4.8v.2c0 .4 0 .5.3.5.1 0 .3 0 .3.2 0 .1-.1.2-.2.2H13h-.4-.4-.4c-.2 0-.2-.1-.2-.2 0-.2.2-.2.3-.2.3 0 .3-.2.3-.5v-.2-1.9h0c0-.4 0-.5-.1-.5h-.2-.1c-.1 0-.2-.1-.2-.2 0-.2.2-.2.2-.3.2-.1.6-.3.7-.5 0-.1.1-.1.2-.1h.1c.1.1.1.1.1.2h0v3.3zm5.4-3.4h-.1H17c-.1 0-.2 0-.2.2s.3.2.3.2c.1 0 .2 0 .2.2 0 .1-.1.2-.1.3v.1l-.9 2.3-.8-2.2h0c0-.1-.1-.3-.1-.4s.1-.2.2-.2.2 0 .3-.1l.1-.1c0-.1 0-.1-.1-.2s-.1-.1-.2-.1h0H14h0-.2l-.1.1c0 .1.1.2.3.2.3 0 .3.1.4.4v.1l1.3 3.5.1.1c0 .1.1.2.2.2s.2-.1.2-.2h0 0l1.3-3.1s0-.1.1-.1c.1-.3.3-.7.6-.8.1 0 .3 0 .3-.2-.1-.1-.1-.2-.1-.2zm3.9 3.3c-.1 0-.1.1-.2.1-.2.2-.5.5-1.1.5-1.1 0-1.6-1-1.6-2v-.2h.2 0 2.7s.2 0 .2-.3-.1-.8-.3-1.1a1.75 1.75 0 0 0-1.4-.7 2.34 2.34 0 0 0-1.7.7c-.5.4-.7 1-.7 1.7 0 1.3.9 2.4 2.1 2.4.6 0 1-.2 1.5-.6.3-.3.4-.4.4-.5 0 .1 0 0-.1 0zM19.6 21c.2-.4.6-.6 1.1-.6.2 0 .5 0 .7.3.1.1.2.4.2.5 0 .2-.1.2-.3.3s-.7.1-1 .1h-.7-.2c0-.2.1-.5.2-.6zm5.8-.9c-.5 0-.8.4-1 .7v-.5h0c0-.1 0-.1-.1-.2h-.1c-.1 0-.2.1-.2.1-.1.2-.5.4-.7.5-.1 0-.2.1-.2.3 0 .1.1.2.2.2h.1.2s.1.2.1.5h0v1.9.2c0 .4 0 .5-.3.5-.1 0-.3 0-.3.2 0 .1.1.2.2.2h.4.4.4.4c.1 0 .2-.1.2-.2 0-.2-.2-.2-.3-.2-.3 0-.3-.2-.3-.5v-.2V22h0c0-.4 0-.6.2-.9.1-.1.2-.3.4-.3.1 0 .1 0 .2.1s.2.2.4.2a.47.47 0 0 0 .5-.5c-.2-.3-.4-.5-.8-.5zm1 3.3h0c0-.1 0-.3.2-.3s.2.2.3.4c.1.4.2.9.9.9.5 0 1-.3 1-.9 0-.5-.3-.7-.8-.9h-.1c-.6-.2-1.3-.5-1.3-1.3 0-.4.2-.7.5-1 .3-.2.7-.3 1.1-.3.2 0 .7.1 1 .2.2.1.2.3.2.4v.1c0 .2 0 .4-.1.5l-.1.1c-.1 0-.2-.1-.3-.3-.1-.3-.2-.6-.8-.6-.3 0-.7.2-.7.6 0 .5.4.6.9.8.6.2 1.3.5 1.3 1.4 0 1-.9 1.5-1.8 1.5-.3 0-.9-.1-1.2-.3-.2-.1-.2-.3-.2-.4h0v-.6zm4.8-4c.3 0 .5-.2.5-.6 0-.3-.2-.6-.5-.6s-.5.3-.5.6.2.6.5.6zm.8 4.9s-.1 0 0 0c-.3 0-.4-.2-.3-.5v-.2-3.3h0c0-.1 0-.1-.1-.2h-.1c-.1 0-.2.1-.2.1-.1.2-.5.4-.7.5-.1 0-.2.1-.2.3 0 .1.1.2.2.2h.1.2s.1.2.1.5h0v1.9.2c0 .4 0 .5-.3.5-.1 0-.3 0-.3.2 0 .1.1.2.2.2h.4.4.4.4c.1 0 .2-.1.2-.2-.1-.2-.3-.2-.4-.2zm2.9-.3c0-.1-.1-.2-.2-.2s-.1 0-.2.1-.3.2-.5.2c-.1 0-.2 0-.2-.1-.2-.2-.2-.6-.2-.9h0v-2.5-.1h.1.1.5.1.2c.1-.1.1-.1.1-.2s0-.2-.2-.2h-.9V20v-.7c0-.2-.1-.2-.2-.2s-.2.1-.2.1c-.2.5-.4.7-.8 1 0 0-.1.1-.1.2 0 0 0 .1.1.1.1.1.2.1.3.1h.1.1v.1 2.5.1c0 .4 0 .8.2 1.1.2.2.4.3.7.3s.6-.1.9-.4c.1 0 .2-.1.2-.3zm4.7-3.9h-1.4c-.1 0-.2.1-.2.2 0 .2.2.2.3.2.2 0 .4.1.4.3 0 .1-.1.3-.1.4h0l-.9 2.3c-.2-.7-.9-2.4-.9-2.4h0c0-.1-.1-.2-.1-.3 0-.2.3-.2.3-.2.2 0 .3-.1.3-.2s-.1-.2-.2-.2h-1.7c-.2 0-.3.1-.3.2 0 .2.2.2.3.2.2 0 .3.2.4.5v.1l1.2 3.1v.1c0 .1.1.2.1.3s0 .1-.1.2v.1l-.3.8v.1c0 .1-.1.2-.1.2h-.3-.1c-.4 0-.4.3-.4.5 0 .1 0 .2.1.3s.3.1.5.1h0c.4 0 .4-.1.5-.4l1.8-4.7c.1-.2.3-.8.5-1 .1-.1.2-.2.3-.2s.2 0 .2-.2c.1-.3 0-.4-.1-.4z"/></g><path d="M56.8 18.2v.2.2V29c-.2 2.7-2.9 7.1-7.3 8.5h-.1-.1-.1-.1-.1-.1c-4.4-1.4-7-5.8-7.3-8.4V18.6v-.2-.2-.2h.2.2.2H49h0 6.8.2.2.2v.2z" fill="#fff"/><path d="M56.3 18.3h-.2-6.8 0-6.8-.2-.1v.1.2V29c.2 2.6 2.8 6.8 7 8.1h.1 0 0 .1c4.2-1.3 6.8-5.6 7-8.1V18.6v-.2-.1h-.1z" fill="#495965"/><path d="M49.3 22.5h6.8V29c-.2 2.2-2.5 6.5-6.8 7.8-4.3-1.3-6.6-5.6-6.8-7.8v-6.5h6.8 0z" fill="#fec057"/><g fill="#7a003c"><path d="M48.4 25.4s.7 0 .7-.5c0 0 .1.4.2.4.2 0 .2-.5.2-.5.2.6.8.7.8.7-.5-.3-.5-1.3-.5-1.3 0-.5.4-.4.5-.7 0-.4-.4-.3-.4-.3s.2 0 .2.1c.1.2-.3.2-.3.2-.5.1-.6-.2-.8-.2s-.2.1-.2.1-.7.1-.9.2c-.2.2-.1.4 0 .5 0 0 .1-.2.3-.3a1.13 1.13 0 0 1 .8.5c-.1 0-1.1.1-1.2 0s-.2-.2-.2-.3c0 0-.1.3.1.3.1.1.2.1.2.1H49c0 .1 0 .3-.2.3H48s0 .2.3.1c.1 0 .3-.1.3 0 .2.3.3.5-.2.6zm.6 7c-.3.2-.8 0-.8 0s0 .1-.4.3c-.6.3-1.3 1-.4 2 0 0-.4-1.1.2-1.4 0 0 .5.5 1.2-.5l.2-.4z"/><path d="M47.3 28.3c0 .3-.1.3-.3.4l-.2-.2c-.2-.3.1-.8.1-.8-.3.4-.7.3-.7.3 0-.3.5-.6.5-.6-.4.1-.7-.1-.7-.1.1-.2.5-.5.5-.5-.4 0-.7-.3-.7-.3.1-.2.6-.4.6-.4-.2-.1-.4-.5-.4-.5.3-.2.7-.1.7-.1-.6-.4 0-1.6 0-1.6-.1 1.7 1.2 1.3 1.1 2.1-.1.7-.9.2-.9.2-.1 1 .4 1.1.4 1.1v.5c0 .4.1.4 0 .5z"/><path d="M45.6 30.8c1.8 0 2.2-1.4 2.2-1.4-.2-.3-.2-.4-.2-.4v-.1c-.1.1-.6.3-.6.3s-.3-.2-.3-.3c-.2-.3-.2-.4-.2-.4-.3 0-.6-.3-.6-.3 0-.3.1-.5.1-.5-.2-.1-.4-.3-.4-.3.1-.3.2-.4.2-.4-.4-.3-.4-.4-.4-.4.1-.2.4-.5.4-.5-.1-.2-.3-.5-.3-.5.3-.3.5-.3.5-.3v-.4s-2.1-1.1-2.3-1.8c0 0-.1.6-.1 1s.6.9 1.9 1.8c-.8-.1-2-.6-2.2-1 0 0 0 .6.1 1 .1.3.7.5 2 1.2-.7.4-1.8 0-2.1-.4 0 0 .2.6.4.9.1.2.7.6 2 .4-.5.6-1.4 1-2 .8 0 0 .1.6.4.7s.9.2 1.8-.5c-.6 1.4-1.9 1-1.9 1s.3.6.7.7c.3.2 1 0 2-1.1 0-.1 0 .9-1.1 1.2zm2.4-1s.4.5.5.8c0 0-.7.6-.6 1.3 0 0-.2-.5-.1-.9l.1-.2s-.6.3-1 .1c0 0 .4.1.9-.7l.2-.4z"/><path d="M45.6 31.9c-.1 0-.4-.1-.5.1-.1.3.2.4.4.2s.5-.2.6 0c0 .1.1.2-.2.4-.1.1-.5.4-.2.7.1.1.4.1.5-.4.1-.3.2-.5.3-.5s.2-.1.3 0l.1.1c.2.1.4 0 .3-.2 0-.2-.2-.2-.3-.1h-.2c-.1 0-.1-.1 0-.2.6-.3.7-.6.7-.6h-.5s-.5.6-.9.4a.76.76 0 0 1-.2-.4c0-.2-.2-.3-.3-.2s0 .3.1.3.2.1.1.2c0 .2 0 .2-.1.2zm-.2-.8s-.1 0-.1.1c0 0-.2-.1-.3.1 0 0 0-.3.4-.2zm-.5 1v.3s-.2.1-.1.4c.1-.1-.3-.4.1-.7zm.5 1.1s0 .1.1.2c0 0-.2.2.1.4 0 0-.4-.2-.2-.6zm2-.8c.1 0 .1.1.1.3 0 0 .2-.3-.1-.4 0-.1 0 0 0 .1-.1 0 0 0 0 0zm3.9 0c-.1 0-.1.1-.1.3 0 0-.2-.3.1-.4.1-.1 0 0 0 .1h0zm-1.9-6.6c.2-.1.3-.2.3-.2.1.2.5.2.6.3.4 1.1 1.3 1.8.5 3.2-.9 1.5-1.5 1.8-.3 2.8 0 0-.8.2-1-.5 0 0 0 .7-.1.9-.2-.2-.1-.9-.1-.9-.2.7-1 .5-1 .5 1.2-1.1.6-1.3-.3-2.8-.8-1.5.1-2.2.5-3.2a1.08 1.08 0 0 0 .7-.3c-.1 0 0 .2.2.2zm.4 6.6c.3.2.8 0 .8 0s0 .1.4.3c.6.3 1.3 1 .4 2 0 0 .4-1.1-.2-1.4 0 0-.5.5-1.2-.5l-.2-.4zm1.6-4.1c0 .3.1.3.3.4l.2-.2c.2-.3-.1-.8-.1-.8.3.4.7.3.7.3 0-.3-.5-.6-.5-.6.4.1.7-.1.7-.1-.1-.2-.5-.5-.5-.5.4 0 .7-.3.7-.3-.1-.2-.6-.4-.6-.4.2-.1.4-.5.4-.5-.3-.2-.7-.1-.7-.1.6-.4 0-1.6 0-1.6.1 1.7-1.2 1.3-1.1 2.1.1.7.9.2.9.2.1 1-.4 1.1-.4 1.1v.5.5z"/><path d="M53.2 30.8c-1.8 0-2.2-1.4-2.2-1.4.2-.3.2-.4.2-.4v-.1c.1.1.6.3.6.3s.3-.2.3-.3c.2-.3.2-.4.2-.4.3 0 .6-.3.6-.3 0-.3-.1-.5-.1-.5.2-.1.4-.3.4-.3-.1-.3-.2-.4-.2-.4.4-.3.4-.4.4-.4-.1-.2-.4-.5-.4-.5.1-.2.3-.5.3-.5-.3-.3-.5-.3-.5-.3v-.4s2.1-1.1 2.3-1.8c0 0 .1.6.1 1s-.6.9-1.9 1.8c.8-.1 2-.6 2.2-1 0 0 0 .6-.1 1-.1.3-.7.5-2 1.2.7.4 1.8 0 2.1-.4 0 0-.2.6-.4.9-.1.2-.7.6-2 .4.5.6 1.4 1 2 .8 0 0-.1.6-.4.7s-.9.2-1.8-.5c.6 1.4 1.9 1 1.9 1s-.3.6-.7.7c-.3.2-1 0-2-1.1-.1-.1 0 .9 1.1 1.2zm-2.4-1s-.4.5-.5.8c0 0 .7.6.6 1.3 0 0 .2-.5.1-.9l-.1-.2s.6.3 1 .1c0 0-.4.1-.9-.7-.3-.4-.2-.4-.2-.4z"/><path d="M53.2 31.9c.1 0 .4-.1.5.1.1.3-.2.4-.4.2s-.5-.2-.6 0c0 .1-.1.2.2.4.1.1.5.4.2.7-.1.1-.4.1-.5-.4-.1-.3-.2-.5-.3-.5s-.2-.1-.3 0l-.1.1c-.2.1-.4 0-.3-.2 0-.2.2-.2.3-.1h.2c.1 0 .1-.1 0-.2-.6-.3-.7-.6-.7-.6h.5s.5.7.9.5a.76.76 0 0 0 .2-.4c0-.2.2-.3.3-.2s0 .3-.1.3-.2.1-.1.2c-.1.1 0 .1.1.1zm.2-.8s.1 0 .1.1c0 0 .2-.1.3.1 0 0 0-.3-.4-.2zm.4 1v.3s.2.1.1.4c0-.1.3-.4-.1-.7zm-.5 1.1s0 .1-.1.2c0 0 .2.2-.1.4 0 0 .5-.2.2-.6zm-3.9-.3c.1 0 .1 0 .2-.1 0 0 .5 1.1 1.5 1 0 0-.1.2-.5.3 0 0 .7.3.3.7-.3.2-.5-.4-.5-.4s0 .6-.5.6c0 0 .7-.4 0-1.4.1.7-.2 1.3-.5 1.3h0c-.3 0-.6-.6-.5-1.3-.8 1 0 1.4 0 1.4-.5 0-.5-.6-.5-.6s-.2.6-.5.4c-.4-.3.3-.7.3-.7-.4 0-.5-.3-.5-.3 1.1.1 1.5-1 1.5-1 .1.1.1.1.2.1z"/></g><path d="M49.3 23.7h0v-.2h0 0l-.6.2h0 .3v.1c0 .1.1.1.1.1.1 0 .1-.1.1-.1v-.1h.1 0zm1.5 4c-.1-.2-.2-.3-.3-.3v-.1c-.1-.2-.3-.2-.5-.2-.1 0-.1 0-.1.1h0s0-.1.1-.2c.1-.2 0-.4-.2-.5h-.1c0-.1-.1-.2-.3-.3h-.1-.1c-.2.1-.3.2-.3.3h-.1c-.2.1-.2.3-.2.5 0 .1.1.1.1.2v.1s-.1 0-.1-.1c-.2-.1-.4 0-.5.2v.1c-.1 0-.2.1-.3.3v.1.1c.1.2.2.3.3.3v.1c.1.2.3.2.5.2.1 0 .1-.1.2-.1h.1v.5h-.1l-.1.1s0 .1-.1.2c-.1.2 0 .4.2.5h.1c0 .1.1.2.3.3h.1.1c.2-.1.3-.2.3-.3h.1c.2-.1.2-.3.2-.5 0-.1-.1-.1-.1-.2l-.1-.1h-.1v-.5h.1s.1 0 .2.1c.2.1.4 0 .5-.2v-.1c.1 0 .2-.1.3-.3v-.3h0z" fill="#fec057"/><path d="M50.5 27.8s-.1-.2-.3-.1v-.2c-.1-.1-.2-.1-.2-.1h0 0v.1s0 .1-.1.1h-.1-.4v-.5-.1c0-.1.1-.1.1-.1h.1 0 0s0-.1-.1-.2h-.2c0-.2-.1-.3-.1-.3h0 0 0 0s-.2.1-.1.3h-.2c.1.1.1.2.1.2h0 0 .1s.1 0 .1.1v.1h0 0v.5h-.4-.1c-.1 0-.1-.1-.1-.1v-.1h0 0s-.1 0-.2.1v.2c-.2 0-.3.1-.3.1h0 0 0 0s.1.2.3.1v.2c.1.1.2.1.2.1h0 0v-.1s0-.1.1-.1h.1 0 0 .4v1h0v.1c0 .1-.1.1-.1.1H49h0 0s0 .1.1.2h.2c0 .2.1.3.1.3h0 0 0 0s.2-.1.1-.3h.2c.1-.1.1-.2.1-.2h0 0-.1s-.1 0-.1-.1V29v-1h.4 0 .1c.1 0 .1.1.1.1v.1h0 0s.1 0 .2-.1v-.2c0 0 .1-.1.1-.1h0 0 0 0z" fill="#7a003c"/><path d="M42.5 18.6h13.6v3.9H42.5z" fill="#495965"/><path d="M44.8 21.9h.2c-.1 0-.1-.1-.2-.2v-.4l.6.1-.1-.2.6-.6-.2-.1.1-.4-.4.1-.1-.2-.3.3.1-.7-.1.1-.3-.5h0l-.3.5-.2-.2.1.7-.3-.3v.2l-.4-.1.1.4-.2.1.6.6-.1.2.6-.1s.1.2 0 .4c0 .2-.1.2-.2.2h.4zm9 0h-.2c.1 0 .1-.1.2-.2v-.4l-.6.1.1-.2-.6-.6.2-.1-.2-.5.4.1.1-.2.3.3-.1-.7.2.2.3-.5h0l.3.5.2-.2-.1.7.3-.3.1.2.3-.1-.1.4.2.1-.6.6.1.2-.6-.1s-.1.2 0 .4c0 .2.1.2.2.2h-.4z" fill="#fec057"/><g fill="#7a003c"><path d="M51.3 19.7v1.9h-.7c-.2 0-.8-.4-1.1-.3h0c-.1 0-.1 0-.1.1l-.1-.1c-.3-.1-.9.2-1.1.3h-.7v-1.9h-.4V22h2s.1-.3.4-.3.4.3.4.3h2v-2.3h-.6z"/><path d="M49.3 19.4c0-.1-.1-.1-.1-.1v.5.3 1.3c.1 0 .1 0 .1.1l.1-.1v-1.6-.4c0-.1 0 0-.1 0z"/></g><g fill="#fec057"><path d="M48.3 19.3c-.2.1-.6.1-.6.1h-.3v.3 1.9h.7c.2 0 .8-.4 1.1-.3V20v-.3-.5c-.3-.1-.7 0-.9.1zm2.7.1s-.4 0-.6-.1-.6-.2-.9 0v.4.2 1.4c.3-.1.9.2 1.1.3h.7v-1.9-.3H51z"/><path d="M49.5 19.7h0v1.7h0V20z"/></g><defs ><path id="B" d="M97.8 19.9H97v-2.3h.8c.6 0 .9.4.9 1.1 0 .5-.2 1.2-.9 1.2m12.4 3.3h-.8v-5.7h.9c1.2 0 1.2 1.3 1.2 2.9 0 1.1-.1 1.8-.2 2.2-.3.4-.6.6-1.1.6m-19 .2c-1 0-1.1-1-1.1-3s.1-3 1.1-3 1.1 1 1.1 3-.1 3-1.1 3m-7 1H86l1.8-8.1h-1.6l-1 5.7h-.1 0l-1.2-5.7h-2L80.6 22h-.1 0l-1.1-5.7h-1.7l1.8 8.1h1.8l1.4-6h.1l1.4 6zm14.7 0h1.6c-.1-.4-.2-1.8-.2-2.4 0-1.4-1-1.5-1.4-1.6h-.1v-.1h0c1-.2 1.5-.8 1.5-2 0-1.3-.7-2.1-1.9-2.1h-3.1v8.1h1.6v-3.4h.5c.4 0 .8.1 1 .3.3.3.3.8.3 1.4v.2.2c.1.6 0 1 .2 1.4m3.5 0h4.2v-1.3H104v-6.8h-1.6v8.1zm5.3 0h2.7c.8 0 1.4-.2 1.9-.7.8-.8.8-2.3.8-3.2v-.2c0-1.5-.1-2.3-.5-3s-1.1-1-2.1-1h-2.8v8.1zm-16.5-8.2c-2.8 0-2.8 2-2.8 4.2s0 4.2 2.8 4.2 2.8-2 2.8-4.2 0-4.2-2.8-4.2"/><path id="C" d="M80.8 9.4h-1.2V7.2h1.1c.6 0 1 .4 1 1.1s-.5 1.1-.9 1.1m6.8.2h-.8V7.2h.8c.6 0 .9.4.9 1.1 0 .6-.2 1.3-.9 1.3m37.8 0h-.8V7.2h.8c.6 0 .9.4.9 1.1 0 .6-.3 1.3-.9 1.3m-44.8 3.3h-1v-2.4h1c.8 0 1.2.4 1.2 1.2 0 1.2-.9 1.2-1.2 1.2M78 14.1h3c1.6 0 2.5-.7 2.5-2.1 0-1.3-.4-1.9-1.5-2h0v-.1h0c.9-.2 1.4-.8 1.4-1.8C83.3 6.3 82 6 80.9 6h-3v8.1zm10.7 0h1.6c-.1-.4-.2-1.8-.2-2.4 0-1.4-1-1.5-1.4-1.6h-.1V10h0c1-.2 1.5-.8 1.5-2 0-1.3-.7-2.1-1.9-2.1h-3.1V14h1.6v-3.4h.5c.4 0 .8.1 1 .3.3.3.3.8.3 1.4v.2.2c.1.6 0 1 .2 1.4m3.6 0H94V6h-1.6v8.1zm14.7 0h1.6V6H107v3.3h-2V6h-1.6v8.1h1.6v-3.6h2v3.6zm4.8 0h1.6V7.3h1.9V6h-5.4v1.3h1.9v6.8zm4.9 0h4.5v-1.2h-2.8v-2.4h2.5V9.3h-2.5V7.2h2.7V6h-4.4v8.1zm9.8 0h1.6c-.1-.4-.2-1.8-.2-2.4 0-1.4-1-1.5-1.4-1.6h-.1V10h0c1-.2 1.5-.8 1.5-2 0-1.3-.7-2.1-1.9-2.1h-3.1V14h1.6v-3.4h.5c.4 0 .8.1 1 .3.3.3.3.8.3 1.4v.2.2c0 .6 0 1 .2 1.4M98.8 5.9c-2.9 0-2.9 2.3-2.9 4.1 0 3 .3 4.3 3.2 4.3.7 0 1.8-.2 2.3-.3V9.9h-2.6v1.2h.9V13h0c-.3.1-.6.2-.9.2-1 0-1.2-.5-1.2-3 0-1.6 0-3 1.1-3 .3 0 .6.1.7.3.3.3.3.7.3 1.2h1.6c0-.8-.2-1.4-.6-1.9-.4-.6-1.1-.9-1.9-.9"/></defs></svg>
